<?xml version="1.0" encoding="UTF-8"?>
    <svg width="196" height="196" viewBox="0 0 300 300" fill="none" xmlns="http://www.w3.org/2000/svg">
    <g clip-path="url(#clip0_33_2927)" filter="url(#filter0_d_33_2927)">
        <path d="M199.62 250.5L59.9398 250.2C56.5123 250.2 53.7373 247.425 53.7373 243.997V59.895C53.7373 56.4675 56.5123 53.6925 59.9398 53.6925H244.042C247.47 53.6925 250.245 56.4675 250.245 59.895L250.545 199.575L199.62 250.5Z" fill="#F1F1F1"></path>
        <path d="M201.015 253.875L59.9323 253.575C54.6598 253.575 50.3623 249.277 50.3623 243.997V59.895C50.3623 54.615 54.6598 50.3175 59.9398 50.3175H244.042C249.322 50.3175 253.62 54.615 253.62 59.895L253.92 200.97L201.015 253.875ZM59.9398 57.0675C58.3798 57.0675 57.1123 58.335 57.1123 59.895V243.997C57.1123 245.557 58.3798 246.825 59.9398 246.825L198.225 247.125L247.162 198.188L246.862 59.91C246.862 58.3425 245.595 57.075 244.035 57.075H59.9398V57.0675Z" fill="#BABABA"></path>
        <path d="M132.112 104.917H199.62V199.575H104.962V132.067C104.962 117.082 117.127 104.917 132.112 104.917Z" fill="#F5D1BC"></path>
        <path d="M202.995 202.95H101.587V132.067C101.587 115.237 115.282 101.542 132.112 101.542H202.995V202.95ZM108.337 196.2H196.245V108.292H132.112C119.002 108.292 108.337 118.957 108.337 132.067V196.2Z" fill="#F07F20"></path>
        <path d="M174.397 147.202C174.397 156.262 167.752 163.71 154.605 163.71H149.775V177.397H136.357V130.432H154.672C167.76 130.432 174.397 137.475 174.397 147.21V147.202ZM149.775 141.832V152.302H154.537C158.092 152.302 160.042 150.225 160.042 146.662C160.042 143.707 157.965 141.832 154.41 141.832H149.782H149.775Z" fill="#F07F20"></path>
        <path d="M124.432 49.5L49.5449 127.98V84.2475L86.0924 49.5H124.432Z" fill="#F07F20"></path>
        <path d="M199.62 250.2V205.778C199.62 202.35 202.395 199.575 205.823 199.575H250.245L199.62 250.2Z" fill="#F07F20"></path>
        <path d="M199.62 253.575C199.185 253.575 198.75 253.493 198.33 253.32C197.07 252.795 196.245 251.565 196.245 250.2V205.778C196.245 200.498 200.543 196.2 205.823 196.2H250.245C251.61 196.2 252.84 197.025 253.365 198.285C253.89 199.545 253.598 201 252.63 201.96L202.005 252.585C201.36 253.23 200.498 253.575 199.62 253.575ZM205.823 202.95C204.263 202.95 202.995 204.218 202.995 205.778V242.048L242.093 202.95H205.823Z" fill="#BABABA"></path>
        <path d="M63.7426 89.895C65.6551 91.8075 65.8576 94.7175 63.1501 97.425L61.9276 98.6475L65.0851 101.805L62.5951 104.295L52.5151 94.215L56.2426 90.4875C58.9351 87.795 61.7326 87.8775 63.7501 89.895H63.7426ZM57.1276 93.855L59.7901 96.5175L60.9826 95.325C61.9051 94.4025 61.8901 93.3825 60.9826 92.475C60.1876 91.68 59.2126 91.77 58.2901 92.6925L57.1201 93.8625L57.1276 93.855Z" fill="white"></path>
        <path d="M72.7202 80.9175C74.6327 82.83 74.8352 85.74 72.1277 88.4475L70.9052 89.67L74.0627 92.8275L71.5727 95.3175L61.4927 85.2375L65.2202 81.51C67.9127 78.8175 70.7102 78.9 72.7277 80.9175H72.7202ZM66.1052 84.8775L68.7677 87.54L69.9602 86.3475C70.8827 85.425 70.8677 84.405 69.9602 83.4975C69.1652 82.7025 68.1902 82.7925 67.2677 83.715L66.0977 84.885L66.1052 84.8775Z" fill="white"></path>
        <path d="M80.6626 70.32L77.7376 73.245L85.6876 81.195L83.1826 83.7L75.2326 75.75L72.2926 78.69L70.1626 76.56L78.5326 68.19L80.6626 70.32Z" fill="white"></path>
        <path d="M90.2173 66.0975L99.3748 67.5075L96.3673 70.515L90.8473 69.2625L92.1898 74.6925L89.1823 77.7L87.6148 68.8725L79.2598 67.4625L82.2973 64.425L87.0373 65.565L85.8823 60.84L89.0248 57.6975L90.2173 66.0975Z" fill="white"></path>
    </g>
    <defs>
        <filter id="filter0_d_33_2927" x="-4" y="0" width="308" height="308" filterUnits="userSpaceOnUse" color-interpolation-filters="sRGB"><feFlood flood-opacity="0" result="BackgroundImageFix"></feFlood><feColorMatrix in="SourceAlpha" type="matrix" values="0 0 0 0 0 0 0 0 0 0 0 0 0 0 0 0 0 0 127 0" result="hardAlpha"></feColorMatrix><feOffset dy="4"></feOffset><feGaussianBlur stdDeviation="2"></feGaussianBlur><feComposite in2="hardAlpha" operator="out"></feComposite><feColorMatrix type="matrix" values="0 0 0 0 0 0 0 0 0 0 0 0 0 0 0 0 0 0 0.25 0"></feColorMatrix><feBlend mode="normal" in2="BackgroundImageFix" result="effect1_dropShadow_33_2927"></feBlend><feBlend mode="normal" in="SourceGraphic" in2="effect1_dropShadow_33_2927" result="shape"></feBlend>
        </filter>
        <clipPath id="clip0_33_2927"><rect width="300" height="300" fill="white"></rect></clipPath>
    </defs>
</svg>