<?xml version="1.0" encoding="UTF-8"?>
<svg width="196" height="196" viewBox="0 0 300 300" fill="none" xmlns="http://www.w3.org/2000/svg">
    <g clip-path="url(#clip0_38_5323)">
        <path d="M196.155 53.355C193.508 50.265 189.637 48.495 185.572 48.5025L68.4825 48.795C65.4525 48.795 63 51.66 63 55.1925V245.1C63 248.632 65.4525 251.497 68.4825 251.497H231.255C234.285 251.497 236.737 248.632 236.737 245.1L236.992 106.17C236.992 102.847 235.815 99.63 233.647 97.1025L196.147 53.355H196.155Z" fill="#F1F1F1"></path>
        <path d="M231.263 254.872H68.4825C63.6 254.872 59.625 250.485 59.625 245.1V55.1924C59.625 49.7999 63.6 45.4199 68.4825 45.4199L185.565 45.1274H185.61C190.658 45.1274 195.435 47.3249 198.72 51.1574L236.22 94.9049C238.905 98.0399 240.383 102.045 240.375 106.17L240.12 245.1C240.12 250.485 236.145 254.865 231.263 254.865V254.872ZM185.61 51.8774H185.58L68.49 52.1699C67.3575 52.1699 66.375 53.5799 66.375 55.1924V245.1C66.375 246.712 67.3575 248.122 68.4825 248.122H231.255C232.38 248.122 233.363 246.712 233.363 245.1L233.618 106.162C233.618 103.65 232.725 101.212 231.083 99.2999L193.583 55.5524C191.58 53.2199 188.67 51.8774 185.595 51.8774H185.61Z" fill="#757575"></path>
        <path d="M141.982 207.022L129.232 224.212H142.785V229.875H121.042V225.78L133.327 208.747H121.65V203.085H141.975V207.03L141.982 207.022Z" fill="#757575"></path>
        <path d="M153.615 229.875H146.955V203.077H153.615V229.875Z" fill="#757575"></path>
        <path d="M179.46 212.265C179.46 217.357 175.86 221.49 168.668 221.49H165.413V229.875H158.79V203.077H168.705C175.86 203.077 179.46 206.902 179.46 212.265ZM165.413 208.74V215.82H168.593C171.045 215.82 172.38 214.44 172.38 212.032C172.38 209.925 170.963 208.74 168.51 208.74H165.413Z" fill="#757575"></path>
        <path d="M151.057 80.1074H144.307V83.4824H151.057V80.1074Z" fill="#757575"></path>
        <path d="M151.057 174.9H144.307V168.367H151.057V174.9ZM151.057 161.842H144.307V155.31H151.057V161.842ZM151.057 148.785H144.307V142.252H151.057V148.785ZM151.057 135.727H144.307V129.195H151.057V135.727ZM151.057 122.67H144.307V116.137H151.057V122.67ZM151.057 109.612H144.307V103.08H151.057V109.612ZM151.057 96.555H144.307V90.0225H151.057V96.555Z" fill="#757575"></path>
        <path d="M151.057 181.425H144.307V184.8H151.057V181.425Z" fill="#757575"></path>
        <path d="M155.115 85.3274H148.365V88.7024H155.115V85.3274Z" fill="#757575"></path>
        <path d="M155.115 180.12H148.365V173.587H155.115V180.12ZM155.115 167.062H148.365V160.53H155.115V167.062ZM155.115 154.005H148.365V147.472H155.115V154.005ZM155.115 140.947H148.365V134.415H155.115V140.947ZM155.115 127.89H148.365V121.357H155.115V127.89ZM155.115 114.832H148.365V108.3H155.115V114.832ZM155.115 101.775H148.365V95.2424H155.115V101.775Z" fill="#757575"></path>
        <path d="M155.115 186.645H148.365V190.02H155.115V186.645Z" fill="#757575"></path>
        <path d="M152.895 187.485H147.098V191.475H152.895V187.485Z" fill="#757575"></path>
        <path d="M152.895 184.11H147.098C145.234 184.11 143.723 185.621 143.723 187.485V191.475C143.723 193.339 145.234 194.85 147.098 194.85H152.895C154.759 194.85 156.27 193.339 156.27 191.475V187.485C156.27 185.621 154.759 184.11 152.895 184.11Z" fill="#757575"></path>
        <path d="M154.635 74.8875H145.357V94.0275H154.635V74.8875Z" fill="#DBDBDB"></path>
        <path d="M154.643 97.4024H145.365C143.498 97.4024 141.99 95.895 141.99 94.0275V74.8875C141.99 73.02 143.498 71.5125 145.365 71.5125H154.643C156.51 71.5125 158.018 73.02 158.018 74.8875V94.0275C158.018 95.895 156.51 97.4024 154.643 97.4024ZM148.74 90.6525H151.268V78.2625H148.74V90.6525Z" fill="#757575"></path>
    </g>
    <defs>
        <clipPath id="clip0_38_5323">
        <rect width="300" height="300" fill="white"></rect>
        </clipPath>
    </defs>
</svg>