<svg width="89" height="88" viewBox="0 0 89 88" fill="none" xmlns="http://www.w3.org/2000/svg">
<g clip-path="url(#clip0_453_6316)">
<path d="M63 18.8579V6C63 3.23857 60.7614 1 58 1H6.58173C3.84056 1 1.61045 3.20706 1.58199 5.94809L1.05245 56.9481C1.02357 59.7297 3.27047 62 6.05219 62H25.2718" stroke="#979797" stroke-width="2" stroke-dasharray="4 4"/>
<path d="M42.3146 68.1667H39.9831C39.3393 68.1667 38.8174 68.6891 38.8174 69.3334C38.8174 69.9777 39.3393 70.5001 39.9831 70.5001H42.3146C42.9584 70.5001 43.4803 69.9777 43.4803 69.3334C43.4803 68.6891 42.9584 68.1667 42.3146 68.1667Z" fill="#979797"/>
<path d="M74.9549 68.1667H46.9773C46.3335 68.1667 45.8115 68.6891 45.8115 69.3334C45.8115 69.9777 46.3335 70.5001 46.9773 70.5001H74.9549C75.5986 70.5001 76.1206 69.9777 76.1206 69.3334C76.1206 68.6891 75.5986 68.1667 74.9549 68.1667Z" fill="#979797"/>
<path d="M42.3146 61.1667H39.9831C39.3393 61.1667 38.8174 61.6891 38.8174 62.3334C38.8174 62.9777 39.3393 63.5001 39.9831 63.5001H42.3146C42.9584 63.5001 43.4803 62.9777 43.4803 62.3334C43.4803 61.6891 42.9584 61.1667 42.3146 61.1667Z" fill="#979797"/>
<path d="M74.9549 61.1667H46.9773C46.3335 61.1667 45.8115 61.6891 45.8115 62.3334C45.8115 62.9777 46.3335 63.5001 46.9773 63.5001H74.9549C75.5986 63.5001 76.1206 62.9777 76.1206 62.3334C76.1206 61.6891 75.5986 61.1667 74.9549 61.1667Z" fill="#979797"/>
<path d="M42.3146 54.1667H39.9831C39.3393 54.1667 38.8174 54.6891 38.8174 55.3334C38.8174 55.9777 39.3393 56.5001 39.9831 56.5001H42.3146C42.9584 56.5001 43.4803 55.9777 43.4803 55.3334C43.4803 54.6891 42.9584 54.1667 42.3146 54.1667Z" fill="#979797"/>
<path d="M74.9549 54.1667H46.9773C46.3335 54.1667 45.8115 54.6891 45.8115 55.3334C45.8115 55.9777 46.3335 56.5001 46.9773 56.5001H74.9549C75.5986 56.5001 76.1206 55.9777 76.1206 55.3334C76.1206 54.6891 75.5986 54.1667 74.9549 54.1667Z" fill="#979797"/>
<path d="M42.3146 47.1667H39.9831C39.3393 47.1667 38.8174 47.6891 38.8174 48.3334C38.8174 48.9777 39.3393 49.5001 39.9831 49.5001H42.3146C42.9584 49.5001 43.4803 48.9777 43.4803 48.3334C43.4803 47.6891 42.9584 47.1667 42.3146 47.1667Z" fill="#979797"/>
<path d="M74.9549 47.1667H46.9773C46.3335 47.1667 45.8115 47.6891 45.8115 48.3334C45.8115 48.9777 46.3335 49.5001 46.9773 49.5001H74.9549C75.5986 49.5001 76.1206 48.9777 76.1206 48.3334C76.1206 47.6891 75.5986 47.1667 74.9549 47.1667Z" fill="#979797"/>
<path d="M42.3146 40.1667H39.9831C39.3393 40.1667 38.8174 40.6891 38.8174 41.3334C38.8174 41.9777 39.3393 42.5001 39.9831 42.5001H42.3146C42.9584 42.5001 43.4803 41.9777 43.4803 41.3334C43.4803 40.6891 42.9584 40.1667 42.3146 40.1667Z" fill="#979797"/>
<path d="M74.9549 40.1667H46.9773C46.3335 40.1667 45.8115 40.6891 45.8115 41.3334C45.8115 41.9777 46.3335 42.5001 46.9773 42.5001H74.9549C75.5986 42.5001 76.1206 41.9777 76.1206 41.3334C76.1206 40.6891 75.5986 40.1667 74.9549 40.1667Z" fill="#979797"/>
<path d="M83.1006 35.4265C83.0948 35.3243 83.0748 35.2234 83.0411 35.1267C83.0283 35.0893 83.019 35.0532 83.0027 35.017C82.946 34.8901 82.867 34.7743 82.7695 34.6752L66.4493 18.3418C66.3502 18.2443 66.2345 18.1652 66.1077 18.1085C66.0716 18.0922 66.0354 18.0828 65.9993 18.07C65.9018 18.0365 65.8002 18.016 65.6974 18.0093C65.6776 18.0128 65.6554 18 65.6298 18H32.9892C32.3455 18 31.8235 18.5224 31.8235 19.1667V22.6667H25.9948C25.3511 22.6667 24.8291 23.189 24.8291 23.8333V86.8333C24.8291 87.4776 25.3511 88 25.9948 88H74.9556C75.5994 88 76.1214 87.4776 76.1214 86.8333V81H81.95C82.5938 81 83.1158 80.4776 83.1158 79.8333V35.5C83.1158 35.4743 83.1029 35.4522 83.1006 35.4265ZM66.7955 21.983L79.1359 34.3333H66.7955V21.983ZM73.7899 85.6667H27.1606V25H31.8235V79.8333C31.8235 80.4776 32.3455 81 32.9892 81H73.7899V85.6667ZM80.7843 78.6667H34.155V20.3333H64.464V35.5C64.464 36.1443 64.986 36.6667 65.6298 36.6667H80.7843V78.6667Z" fill="#979797"/>
<path d="M46.9775 28.5H39.9831C39.3393 28.5 38.8174 29.0224 38.8174 29.6667V36.6667C38.8174 37.311 39.3393 37.8333 39.9831 37.8333H46.9775C47.6213 37.8333 48.1432 37.311 48.1432 36.6667V29.6667C48.1432 29.0224 47.6213 28.5 46.9775 28.5ZM45.8118 35.5H41.1488V30.8333H45.8118V35.5Z" fill="#979797"/>
</g>
<defs>
<clipPath id="clip0_453_6316">
<rect width="89" height="88" fill="white"/>
</clipPath>
</defs>
</svg>
