<?xml version="1.0" encoding="UTF-8"?>
<svg width="19px" height="19px" viewBox="0 0 19 19" version="1.1" xmlns="http://www.w3.org/2000/svg" xmlns:xlink="http://www.w3.org/1999/xlink">
    <title>Icon button/20px/duplicarte1</title>
    <g id="Icon-button/20px/duplicarte1" stroke="none" stroke-width="1" fill="none" fill-rule="evenodd">
        <g id="Group-3" transform="translate(0.000000, 0.000000)" fill="#000000" fill-rule="nonzero">
            <g id="duplicate">
                <path d="M0,6.44336727 L0,16.4058174 C0.00114800642,17.3729872 0.784907774,18.156747 1.75207759,18.157895 L11.7143908,18.157895 C12.6815606,18.156747 13.4653203,17.3729872 13.4664683,16.4058174 L13.4664683,6.44336727 C13.4653203,5.47619745 12.6815606,4.69243769 11.7143908,4.69128968 L1.75207759,4.69128968 C0.784907774,4.69243769 0.00114800642,5.47619745 0,6.44336727 L0,6.44336727 Z M12.5107897,6.44336727 L12.5107897,16.4058174 C12.5103279,16.845465 12.1540383,17.2017545 11.7143908,17.2022163 L1.75207759,17.2022163 C1.31243004,17.2017545 0.956140465,16.845465 0.955678684,16.4058174 L0.955678684,6.44336727 C0.956140465,6.00371972 1.31243004,5.64743015 1.75207759,5.64696836 L11.7143908,5.64696836 C12.1540383,5.64743015 12.5103279,6.00371972 12.5107897,6.44336727 L12.5107897,6.44336727 Z" id="Shape"></path>
                <path d="M5.64710535,2.82348259 L5.64710535,2.04139338 C5.64790768,1.4419805 6.13371915,0.956308689 6.73313223,0.955678684 L7.90610995,0.955678684 C8.1672919,0.951858555 8.37701123,0.73903981 8.37701123,0.477829924 C8.37701123,0.216620038 8.16727294,0.00380968218 7.90609083,0 L6.73314816,0 C5.60615718,0.00118834082 4.69279613,0.914402609 4.69142666,2.04139338 L4.69142666,2.82348259 C4.69512164,3.08475089 4.90797157,3.29461188 5.169266,3.29461188 C5.43056044,3.29461188 5.64341036,3.08475089 5.64710535,2.82348259 L5.64710535,2.82348259 Z" id="Path"></path>
                <path d="M17.6800557,9.77392978 C17.4161581,9.77392978 17.2022304,9.98787157 17.2022163,10.2517691 L17.2022163,11.4245907 C17.2015457,12.0241088 16.7157075,12.509947 16.1161894,12.5106176 L15.3342563,12.5106176 C15.0703529,12.5106176 14.856417,12.7245536 14.856417,12.988457 C14.856417,13.2523604 15.0703529,13.4662963 15.3342563,13.4662963 L16.1161894,13.4662963 C17.2432777,13.4650551 18.1566538,12.5516791 18.157895,11.4245907 L18.157895,10.2517691 C18.157895,9.98787157 17.9439532,9.77392978 17.6800557,9.77392978 L17.6800557,9.77392978 Z" id="Path"></path>
                <path d="M16.1161894,0 L14.9433678,0 C14.6820996,0.00370020589 14.4722481,0.21655433 14.4722481,0.477848765 C14.4722481,0.7391432 14.6821185,0.951988929 14.9433869,0.955678684 L16.1161894,0.955678684 C16.7156025,0.956308689 17.201414,1.4419805 17.2022163,2.04139338 L17.2022163,3.21452719 C17.2022163,3.47843057 17.4161523,3.69236654 17.6800557,3.69236654 C17.943959,3.69236654 18.157895,3.47843057 18.157895,3.21452719 L18.157895,2.04139338 C18.1565255,0.91440882 17.2431742,0.00119711689 16.1161894,0 L16.1161894,0 Z" id="Path"></path>
                <path d="M12.5975685,0.955678684 C12.8587504,0.951858555 13.0684698,0.73903981 13.0684698,0.477829924 C13.0684698,0.216620038 12.8587315,0.00380968218 12.5975494,0 L10.2517691,0 C9.99058717,0.00382012946 9.78086784,0.216638874 9.78086784,0.47784876 C9.78086784,0.739058646 9.99060613,0.951869002 10.2517882,0.955678684 L12.5975685,0.955678684 Z" id="Path"></path>
                <path d="M17.6800557,5.0823311 C17.4161581,5.0823311 17.2022304,5.29627289 17.2022163,5.56017044 L17.2022163,7.90581369 C17.2060364,8.16699564 17.4188552,8.37671497 17.6800651,8.37671497 C17.941275,8.37671497 18.1540853,8.16697668 18.157895,7.90579457 L18.157895,5.56017044 C18.1578809,5.29627289 17.9439532,5.0823311 17.6800557,5.0823311 L17.6800557,5.0823311 Z" id="Path"></path>
                <path d="M3.54755254,11.9024301 L6.25530882,11.9024301 L6.25530882,14.6101864 C6.25912895,14.8713683 6.47194769,15.0810876 6.73315758,15.0810876 C6.99436746,15.0810876 7.20717782,14.8713494 7.2109875,14.6101672 L7.2109875,11.9024301 L9.91874377,11.9024301 C10.1826472,11.9024301 10.3965831,11.6884941 10.3965831,11.4245907 C10.3965831,11.1606874 10.1826472,10.9467514 9.91874377,10.9467514 L7.2109875,10.9467514 L7.2109875,8.23899513 C7.21098749,7.97509176 6.99705153,7.76115581 6.73314816,7.76115581 C6.46924478,7.76115581 6.25530883,7.97509176 6.25530882,8.23899513 L6.25530882,10.9467514 L3.54755254,10.9467514 C3.28637052,10.9505663 3.07664171,11.1633809 3.07664171,11.4245907 C3.07664171,11.6858006 3.28637052,11.8986152 3.54755254,11.9024301 L3.54755254,11.9024301 Z" id="Path"></path>
            </g>
        </g>
    </g>
</svg>