<?xml version="1.0" encoding="UTF-8"?>
<svg width="24px" height="24px" viewBox="0 0 24 24" version="1.1" xmlns="http://www.w3.org/2000/svg" xmlns:xlink="http://www.w3.org/1999/xlink">
    <title>Icon button/24px/edit@2x</title>
    <g id="Icon-button/24px/edit" stroke="none" stroke-width="1" fill="none" fill-rule="evenodd">
        <g id="Group-10" stroke="#000000" stroke-width="0.8">
            <g id="Edit/20x20/ultradark" transform="translate(0.521602, 0.521817)">
                <path d="M15.8482762,1.96218324 L1.92723272,15.8258354 C1.93036316,15.8341832 1.92931968,15.8435745 1.92723272,15.8519224 L7.1028849,21.0275745 L7.10497185,21.0275745 C7.11331968,21.0275745 7.12062403,21.0296615 7.1268849,21.0338354 L21.0521023,7.16496585 L15.8482762,1.96218324 Z" id="Stroke-1"></path>
                <path d="M1.91930229,15.844305 C1.91721533,15.8411745 1.91304142,15.842218 1.91199794,15.8453485 L0.0159979392,22.2053485 C-0.0320020608,22.4109137 0.0295631566,22.6279572 0.179824026,22.7771745 C0.329041417,22.9263919 0.545041417,22.9890006 0.750606635,22.9410006 L7.10225881,21.0470876 C7.10956316,21.0450006 7.11165011,21.0366528 7.10643272,21.0314354 L1.91930229,15.844305 Z" id="Stroke-3"></path>
                <path d="M21.0519979,7.16538324 L21.8617371,6.2982528 C22.801911,5.37060063 23.1723458,4.01199193 22.8332153,2.73477454 C22.4940849,1.45860063 21.4975632,0.462078889 20.2213892,0.122948455 C18.9452153,-0.215138502 17.5855632,0.155296281 16.657911,1.09547019 L15.8481719,1.96260063 L21.0519979,7.16538324 Z" id="Stroke-5"></path>
            </g>
        </g>
    </g>
</svg>