<svg width="60" height="70" viewBox="0 0 60 70" fill="none" xmlns="http://www.w3.org/2000/svg">
<g clip-path="url(#clip0_1351_6325)">
<path d="M18.3136 50.168H15.9821C15.3384 50.168 14.8164 50.6903 14.8164 51.3346C14.8164 51.9789 15.3384 52.5013 15.9821 52.5013H18.3136C18.9574 52.5013 19.4793 51.9789 19.4793 51.3346C19.4793 50.6903 18.9574 50.168 18.3136 50.168Z" fill="#979797"/>
<path d="M50.9558 50.168H22.9782C22.3345 50.168 21.8125 50.6903 21.8125 51.3346C21.8125 51.9789 22.3345 52.5013 22.9782 52.5013H50.9558C51.5996 52.5013 52.1216 51.9789 52.1216 51.3346C52.1216 50.6903 51.5996 50.168 50.9558 50.168Z" fill="#979797"/>
<path d="M18.3136 43.168H15.9821C15.3384 43.168 14.8164 43.6903 14.8164 44.3346C14.8164 44.9789 15.3384 45.5013 15.9821 45.5013H18.3136C18.9574 45.5013 19.4793 44.9789 19.4793 44.3346C19.4793 43.6903 18.9574 43.168 18.3136 43.168Z" fill="#979797"/>
<path d="M50.9558 43.168H22.9782C22.3345 43.168 21.8125 43.6903 21.8125 44.3346C21.8125 44.9789 22.3345 45.5013 22.9782 45.5013H50.9558C51.5996 45.5013 52.1216 44.9789 52.1216 44.3346C52.1216 43.6903 51.5996 43.168 50.9558 43.168Z" fill="#979797"/>
<path d="M18.3136 36.168H15.9821C15.3384 36.168 14.8164 36.6903 14.8164 37.3346C14.8164 37.9789 15.3384 38.5013 15.9821 38.5013H18.3136C18.9574 38.5013 19.4793 37.9789 19.4793 37.3346C19.4793 36.6903 18.9574 36.168 18.3136 36.168Z" fill="#979797"/>
<path d="M50.9558 36.168H22.9782C22.3345 36.168 21.8125 36.6903 21.8125 37.3346C21.8125 37.9789 22.3345 38.5013 22.9782 38.5013H50.9558C51.5996 38.5013 52.1216 37.9789 52.1216 37.3346C52.1216 36.6903 51.5996 36.168 50.9558 36.168Z" fill="#979797"/>
<path d="M18.3136 29.168H15.9821C15.3384 29.168 14.8164 29.6903 14.8164 30.3346C14.8164 30.9789 15.3384 31.5013 15.9821 31.5013H18.3136C18.9574 31.5013 19.4793 30.9789 19.4793 30.3346C19.4793 29.6903 18.9574 29.168 18.3136 29.168Z" fill="#979797"/>
<path d="M50.9558 29.168H22.9782C22.3345 29.168 21.8125 29.6903 21.8125 30.3346C21.8125 30.9789 22.3345 31.5013 22.9782 31.5013H50.9558C51.5996 31.5013 52.1216 30.9789 52.1216 30.3346C52.1216 29.6903 51.5996 29.168 50.9558 29.168Z" fill="#979797"/>
<path d="M18.3136 22.168H15.9821C15.3384 22.168 14.8164 22.6903 14.8164 23.3346C14.8164 23.9789 15.3384 24.5013 15.9821 24.5013H18.3136C18.9574 24.5013 19.4793 23.9789 19.4793 23.3346C19.4793 22.6903 18.9574 22.168 18.3136 22.168Z" fill="#979797"/>
<path d="M50.9558 22.168H22.9782C22.3345 22.168 21.8125 22.6903 21.8125 23.3346C21.8125 23.9789 22.3345 24.5013 22.9782 24.5013H50.9558C51.5996 24.5013 52.1216 23.9789 52.1216 23.3346C52.1216 22.6903 51.5996 22.168 50.9558 22.168Z" fill="#979797"/>
<path d="M59.0996 17.4265C59.0938 17.3243 59.0738 17.2234 59.0402 17.1267C59.0274 17.0893 59.018 17.0532 59.0017 17.017C58.945 16.8901 58.866 16.7743 58.7686 16.6752L42.4483 0.341833C42.3492 0.244271 42.2335 0.165229 42.1067 0.1085C42.0706 0.0921667 42.0345 0.0828333 41.9983 0.07C41.9008 0.0364583 41.7993 0.0160417 41.6964 0.00933333C41.6766 0.0128333 41.6544 0 41.6288 0H8.98826C8.34448 0 7.82252 0.522375 7.82252 1.16667V4.66667H1.99386C1.35008 4.66667 0.828125 5.18904 0.828125 5.83333V68.8333C0.828125 69.4776 1.35008 70 1.99386 70H50.9546C51.5984 70 52.1204 69.4776 52.1204 68.8333V63H57.949C58.5928 63 59.1148 62.4776 59.1148 61.8333V17.5C59.1148 17.4743 59.102 17.4522 59.0996 17.4265ZM42.7945 3.983L55.135 16.3333H42.7945V3.983ZM49.7889 67.6667H3.15959V7H7.82252V61.8333C7.82252 62.4776 8.34448 63 8.98826 63H49.7889V67.6667ZM56.7833 60.6667H10.154V2.33333H40.4631V17.5C40.4631 18.1443 40.985 18.6667 41.6288 18.6667H56.7833V60.6667Z" fill="#979797"/>
<path d="M22.9765 10.5H15.9821C15.3384 10.5 14.8164 11.0224 14.8164 11.6667V18.6667C14.8164 19.311 15.3384 19.8333 15.9821 19.8333H22.9765C23.6203 19.8333 24.1423 19.311 24.1423 18.6667V11.6667C24.1423 11.0224 23.6203 10.5 22.9765 10.5ZM21.8108 17.5H17.1479V12.8333H21.8108V17.5Z" fill="#979797"/>
</g>
<defs>
<clipPath id="clip0_1351_6325">
<rect width="60" height="70" fill="white"/>
</clipPath>
</defs>
</svg>
