<?xml version="1.0" encoding="UTF-8"?>
<svg width="23px" height="19px" viewBox="0 0 23 19" version="1.1" xmlns="http://www.w3.org/2000/svg" xmlns:xlink="http://www.w3.org/1999/xlink">
    <title>Icon button/20px/move_to_wish_list1@2x</title>
    <g id="Icon-button/20px/move_to_wish_list1" stroke="none" stroke-width="1" fill="none" fill-rule="evenodd">
        <g id="Group" transform="translate(0.000000, -0.000000)">
            <g id="Group-15" transform="translate(0.000000, 2.000000)" fill-rule="nonzero" stroke="#000000">
                <g id="Group-3">
                    <polyline id="Path-2" points="0.130366007 0.143798828 3.3075019 0.143798828 7.47982619 12.827474 18.6062283 12.827474 21.5134515 3.92689345 4.62597656 3.92689345"></polyline>
                    <ellipse id="Oval-3" fill="#000000" cx="9.40104167" cy="15.4722222" rx="1" ry="1"></ellipse>
                    <ellipse id="Oval-3" fill="#000000" cx="16.921875" cy="15.4722222" rx="1" ry="1"></ellipse>
                </g>
            </g>
            <rect id="Rectangle" stroke="#FFFFFF" fill="#FFFFFF" x="7.5" y="2.5" width="11" height="4"></rect>
            <g id="like" transform="translate(8.000000, 0.000000)" fill="#000000" fill-rule="nonzero">
                <path d="M9.56632003,0.89555512 C9.05735272,0.318041585 8.35127219,0 7.57817719,0 C6.49087,0 5.80248531,0.64938529 5.41648199,1.19416755 C5.31633315,1.3355328 5.23113912,1.47728099 5.15961,1.61066497 C5.08808088,1.47728099 5.002907,1.3355328 4.90273801,1.19416755 C4.51673469,0.64938529 3.82835,0 2.74104281,0 C1.96794781,0 1.26186728,0.31806174 0.752879811,0.895575275 C0.267392757,1.44648457 0,2.1843088 0,2.97312449 C0,3.8317763 0.335233567,4.63040734 1.05499916,5.48641889 C1.69827757,6.25149231 2.62372215,7.04010645 3.69536912,7.95329696 C4.09469471,8.29358936 4.50764491,8.64549089 4.94727996,9.03014384 L4.9604813,9.04171266 C5.01747887,9.09161576 5.08854443,9.11654716 5.15961,9.11654716 C5.23067557,9.11654716 5.30174113,9.09159561 5.3587387,9.04171266 L5.37194004,9.03014384 C5.81157509,8.64549089 6.22452529,8.29360952 6.62391135,7.95325665 C7.69549785,7.04012661 8.62094243,6.25151247 9.26422084,5.48641889 C9.98398643,4.63038719 10.31922,3.8317763 10.31922,2.97312449 C10.31922,2.1843088 10.0518272,1.44648457 9.56632003,0.89555512 Z M6.23170037,7.49308393 C5.88745764,7.78641582 5.53317786,8.08831347 5.15961,8.41306658 C4.7860623,8.08835378 4.43176236,7.78643598 4.08745917,7.49304362 C1.99017847,5.70586355 0.604641797,4.52517952 0.604641797,2.97312449 C0.604641797,2.33159954 0.818382672,1.73574521 1.20650224,1.29534428 C1.59907601,0.849944974 2.14403966,0.604641797 2.74104281,0.604641797 C3.56998656,0.604641797 4.10584028,1.11532226 4.40937046,1.54373113 C4.68164066,1.92796083 4.82371133,2.31529437 4.87216329,2.46397579 C4.91269444,2.58843122 5.02872521,2.67265783 5.15961,2.67265783 C5.29049479,2.67265783 5.40652556,2.58843122 5.44705671,2.46397579 C5.49550867,2.31529437 5.63757934,1.92796083 5.90984954,1.54371097 C6.21337972,1.11532226 6.74923344,0.604641797 7.57817719,0.604641797 C8.17518034,0.604641797 8.72014399,0.849944974 9.1126976,1.29534428 C9.50083733,1.73574521 9.7145782,2.33159954 9.7145782,2.97312449 C9.7145782,4.52517952 8.32904153,5.70586355 6.23170037,7.49308393 Z" id="Shape"></path>
            </g>
        </g>
    </g>
</svg>