<?xml version="1.0" encoding="UTF-8"?>
<svg width="20px" height="17px" viewBox="0 0 20 17" version="1.1" xmlns="http://www.w3.org/2000/svg" xmlns:xlink="http://www.w3.org/1999/xlink">
    <title>Icon button/20px/nickname</title>
    <g id="Icon-button/20px/nickname" stroke="none" stroke-width="1" fill="none" fill-rule="evenodd">
        <g id="Group-24">
            <g id="comment-(1)" transform="translate(0.000000, -0.000000)" fill="#000000" fill-rule="nonzero">
                <path d="M2.5,0 C1.11929,0 0,1.11929 0,2.5 L0,9.5 C0,10.8807 1.11929,12 2.5,12 L2.506055,12 L2.510705,14.3392 C2.51111,14.54365 2.635955,14.72725 2.825935,14.8028 C3.01591,14.87835 3.23275,14.83065 3.37346,14.6823 L5.9179,12 L13.5,12 C14.8807,12 16,10.8807 16,9.5 L16,2.5 C16,1.11929 14.8807,0 13.5,0 L2.5,0 Z M1,2.5 C1,1.671575 1.671575,1 2.5,1 L13.5,1 C14.32845,1 15,1.671575 15,2.5 L15,9.5 C15,10.32845 14.32845,11 13.5,11 L5.703,11 C5.5658,11 5.43465,11.05635 5.34025,11.1559 L3.50822,13.0872 L3.50506,11.499 C3.504515,11.22325 3.280815,11 3.005065,11 L2.5,11 C1.671575,11 1,10.32845 1,9.5 L1,2.5 Z" id="Shape"></path>
            </g>
            <path d="M7.48809493,7.83333333 L3.34523807,7.83333333 C3.15466666,7.83333333 3,7.64666667 3,7.41666667 C3,7.18666667 3.15466666,7 3.34523807,7 L7.48809493,7 C7.67866634,7 7.833333,7.18666667 7.833333,7.41666667 C7.833333,7.64666667 7.67866634,7.83333333 7.48809493,7.83333333 Z" id="Path" fill="#000000" fill-rule="nonzero"></path>
            <path d="M8.5,4.83333333 L3.5,4.83333333 C3.224,4.83333333 3,4.64666667 3,4.41666667 C3,4.18666667 3.224,4 3.5,4 L8.5,4 C8.776,4 9,4.18666667 9,4.41666667 C9,4.64666667 8.776,4.83333333 8.5,4.83333333 Z" id="Path" fill="#000000" fill-rule="nonzero"></path>
            <g id="Group-21" transform="translate(8.000000, 5.000000)" fill="#FFFFFF">
                <rect id="Rectangle" x="6" y="0" width="2" height="7"></rect>
                <rect id="Rectangle" x="0" y="6" width="8" height="1"></rect>
            </g>
            <g id="Group-19" transform="translate(9.166667, 6.166667)" fill="#000000" fill-rule="nonzero">
                <g id="add-(6)" transform="translate(0.000000, 0.000000)">
                    <path d="M5.41666667,10.8333333 C2.43,10.8333333 0,8.40333333 0,5.41666667 C0,2.43 2.43,0 5.41666667,0 C8.40333333,0 10.8333333,2.43 10.8333333,5.41666667 C10.8333333,8.40333333 8.40333333,10.8333333 5.41666667,10.8333333 Z M5.41666667,0.833333333 C2.88916667,0.833333333 0.833333333,2.89 0.833333333,5.41666667 C0.833333333,7.94333333 2.88916667,10 5.41666667,10 C7.94416667,10 10,7.94333333 10,5.41666667 C10,2.89 7.94416667,0.833333333 5.41666667,0.833333333 Z" id="Shape"></path>
                    <path d="M5.41666667,8.33333333 C5.18666667,8.33333333 5,8.14666667 5,7.91666667 L5,2.91666667 C5,2.68666667 5.18666667,2.5 5.41666667,2.5 C5.64666667,2.5 5.83333333,2.68666667 5.83333333,2.91666667 L5.83333333,7.91666667 C5.83333333,8.14666667 5.64666667,8.33333333 5.41666667,8.33333333 Z" id="Path"></path>
                    <path d="M7.91666667,5.83333333 L2.91666667,5.83333333 C2.68666667,5.83333333 2.5,5.64666667 2.5,5.41666667 C2.5,5.18666667 2.68666667,5 2.91666667,5 L7.91666667,5 C8.14666667,5 8.33333333,5.18666667 8.33333333,5.41666667 C8.33333333,5.64666667 8.14666667,5.83333333 7.91666667,5.83333333 Z" id="Path"></path>
                </g>
            </g>
        </g>
    </g>
</svg>