<?xml version="1.0" encoding="utf-8"?>
<!-- Generator: Adobe Illustrator 27.9.0, SVG Export Plug-In . SVG Version: 6.00 Build 0)  -->
<svg version="1.1" id="Layer_1" xmlns="http://www.w3.org/2000/svg" xmlns:xlink="http://www.w3.org/1999/xlink" x="0px" y="0px"
	 viewBox="0 0 560 560" style="enable-background:new 0 0 560 560;" xml:space="preserve">
<style type="text/css">
	.st0{fill:#FC3441;}
	.st1{fill:#FFFFFF;}
</style>
<g>
	<g>
		<g>
			<g id="Layer_2_00000145058889761392192500000018006834751970571181_">
				<g id="Layer_1-2_00000102542952439717409200000017570140791658491070_">
					<path class="st0" d="M434.2,0.6H125.8C56.7,0.6,0.6,56.7,0.6,125.8v308.3c0,69.1,56,125.2,125.2,125.2h308.3
						c69.1,0,125.2-56,125.2-125.2V125.8C559.4,56.7,503.3,0.6,434.2,0.6z M212.3,204.2v83.4h-75.8v-83.4c0-54.1,43.8-97.9,98-97.9
						h76.9v75.8h-76.9C222.2,182.1,212.3,192,212.3,204.2z M423.6,355.8c0,54.1-43.9,98-98,98h-76.9v-75.8h76.9
						c12.2,0,22.1-9.9,22.1-22.1v-83.4h75.8V355.8z"/>
				</g>
			</g>
		</g>
		<g>
			<path class="st1" d="M311.3,106.3h-76.9c-54.1,0-98,43.8-98,97.9v83.4h75.8v-83.4c0-12.2,9.9-22.1,22.1-22.1h76.9V106.3z"/>
			<path class="st1" d="M423.6,355.8v-83.4h-75.8v83.4c0,12.2-10,22.1-22.1,22.1h-76.9v75.8h76.9
				C379.7,453.7,423.6,409.9,423.6,355.8z"/>
		</g>
	</g>
</g>
</svg>
