<?xml version="1.0" encoding="UTF-8"?>
<svg width="34px" height="19px" viewBox="0 0 34 19" version="1.1" xmlns="http://www.w3.org/2000/svg" xmlns:xlink="http://www.w3.org/1999/xlink">
    <!-- Generator: Sketch 52.6 (67491) - http://www.bohemiancoding.com/sketch -->
    <g id="homepage" stroke="#000000" stroke-width="1" fill="none" fill-rule="evenodd">
        <g id="menu">
            <path d="M29.76,0H4.24C3.1,0,2.01,.47,1.21,1.29,.41,2.11-.02,3.21,0,4.36v13.55c0,.05,.04,.09,.09,.09H3.37s.05,0,.07-.03c.02-.02,.03-.04,.03-.07V4.15H30.54v13.75c0,.05,.04,.09,.09,.09h3.28c.05,0,.09-.04,.09-.09V4.36c.03-1.14-.41-2.25-1.21-3.07S30.9,0,29.76,0" id="Path"></path>
        </g>
    </g>
</svg>