<?xml version="1.0" encoding="UTF-8"?>
<svg width="14px" height="12px" viewBox="0 0 14 12" version="1.1" xmlns="http://www.w3.org/2000/svg" xmlns:xlink="http://www.w3.org/1999/xlink">
    <!-- Generator: Sketch 57.1 (83088) - https://sketch.com -->
    <title>Warning/14x12/yellow</title>
    <desc>Created with Sketch.</desc>
    <g id="Warning/14x12/yellow" stroke="none" stroke-width="1" fill="none" fill-rule="evenodd">
        <g fill="#F5A623" id="Shape">
            <path d="M13.4168591,10.6423926 L7.53602771,0.454863741 C7.19515012,-0.13543649 6.34157044,-0.13543649 6.00069284,0.454863741 L0.119861432,10.6423926 C-0.221016166,11.2326928 0.205773672,11.9726467 0.887528868,11.9726467 L12.6491917,11.9726467 C13.3309469,11.9726467 13.7577367,11.2326928 13.4168591,10.6423926 Z M6.77667436,3.59204619 C7.15357968,3.59204619 7.45842956,3.90521016 7.44734411,4.28211547 L7.33648961,8.15093764 C7.32817552,8.45578753 7.07875289,8.69689607 6.773903,8.69689607 C6.46905312,8.69689607 6.21963048,8.45301617 6.2113164,8.15093764 L6.10323326,4.28211547 C6.09491917,3.90521016 6.39699769,3.59204619 6.77667436,3.59204619 Z M6.76836028,10.5897367 C6.38314088,10.5897367 6.06997691,10.2765727 6.06997691,9.89135335 C6.06997691,9.50613395 6.38314088,9.19296998 6.76836028,9.19296998 C7.15357968,9.19296998 7.46674365,9.50613395 7.46674365,9.89135335 C7.46674365,10.2765727 7.15357968,10.5897367 6.76836028,10.5897367 Z"></path>
        </g>
    </g>
</svg>